<?xml version="1.0" encoding="UTF-8" standalone="no"?><!DOCTYPE svg PUBLIC "-//W3C//DTD SVG 1.1//EN" "http://www.w3.org/Graphics/SVG/1.1/DTD/svg11.dtd"><svg width="100%" height="100%" viewBox="0 0 567 567" version="1.1" xmlns="http://www.w3.org/2000/svg" xmlns:xlink="http://www.w3.org/1999/xlink" xml:space="preserve" xmlns:serif="http://www.serif.com/" style="fill-rule:evenodd;clip-rule:evenodd;stroke-linejoin:round;stroke-miterlimit:2;"><path d="M329.41,3.748c7.627,1.273 13.433,7.535 14.127,15.237c1.511,16.615 4.059,44.902 5.128,56.778c0.299,3.322 2.513,6.163 5.662,7.264c24.628,8.703 47.44,21.873 67.293,38.847c2.527,2.175 6.092,2.672 9.117,1.27c10.822,-5.008 36.593,-16.946 51.731,-23.958c7.023,-3.253 15.357,-1.354 20.277,4.62c19.529,23.86 35.049,50.741 45.934,79.589c2.711,7.242 0.191,15.401 -6.132,19.853c-13.633,9.616 -36.857,25.966 -46.607,32.83c-2.727,1.92 -4.08,5.258 -3.46,8.535c4.777,25.68 4.777,52.021 0.004,77.701c-0.62,3.276 0.732,6.612 3.459,8.531c9.748,6.868 32.972,23.217 46.614,32.821c6.329,4.455 8.851,12.622 6.138,19.87c-10.899,28.843 -26.418,55.723 -45.959,79.574c-4.916,5.969 -13.242,7.866 -20.259,4.616c-15.145,-6.999 -40.915,-18.936 -51.736,-23.948c-3.027,-1.402 -6.594,-0.905 -9.122,1.271c-19.851,16.977 -42.662,30.147 -67.289,38.854c-3.147,1.101 -5.36,3.94 -5.659,7.261c-1.074,11.876 -3.621,40.163 -5.117,56.779c-0.694,7.709 -6.505,13.976 -14.14,15.251c-30.428,4.983 -61.467,4.983 -91.893,-0.015c-7.627,-1.273 -13.433,-7.535 -14.127,-15.237c-1.511,-16.615 -4.059,-44.902 -5.128,-56.778c-0.299,-3.322 -2.513,-6.163 -5.662,-7.264c-24.628,-8.703 -47.44,-21.873 -67.293,-38.847c-2.527,-2.175 -6.092,-2.672 -9.117,-1.27c-10.822,5.008 -36.593,16.946 -51.731,23.958c-7.023,3.253 -15.357,1.354 -20.277,-4.62c-19.529,-23.86 -35.049,-50.741 -45.934,-79.589c-2.711,-7.242 -0.191,-15.401 6.132,-19.853c13.633,-9.616 36.857,-25.966 46.607,-32.83c2.727,-1.92 4.08,-5.258 3.46,-8.535c-4.777,-25.68 -4.777,-52.021 -0.004,-77.701c0.62,-3.276 -0.732,-6.612 -3.459,-8.531c-9.748,-6.868 -32.972,-23.217 -46.614,-32.821c-6.329,-4.455 -8.851,-12.622 -6.138,-19.87c10.899,-28.843 26.418,-55.723 45.959,-79.574c4.916,-5.969 13.242,-7.866 20.259,-4.616c15.145,6.999 40.915,18.936 51.736,23.948c3.027,1.402 6.594,0.905 9.122,-1.271c19.851,-16.977 42.662,-30.147 67.289,-38.854c3.147,-1.101 5.36,-3.94 5.659,-7.261c1.074,-11.876 3.621,-40.163 5.117,-56.779c0.694,-7.709 6.505,-13.976 14.14,-15.251c30.428,-4.983 61.467,-4.983 91.893,0.015Zm-45.945,166.33c62.579,0 113.386,50.806 113.386,113.386c0,62.579 -50.806,113.386 -113.386,113.386c-62.579,0 -113.386,-50.806 -113.386,-113.386c0,-62.579 50.806,-113.386 113.386,-113.386Z" style="fill:#008301;"/><path d="M329.41,3.748c7.627,1.273 13.433,7.535 14.127,15.237c1.511,16.615 4.059,44.902 5.128,56.778c0.299,3.322 2.513,6.163 5.662,7.264c24.628,8.703 47.44,21.873 67.293,38.847c2.527,2.175 6.092,2.672 9.117,1.27c10.822,-5.008 36.593,-16.946 51.731,-23.958c7.023,-3.253 15.357,-1.354 20.277,4.62c19.529,23.86 35.049,50.741 45.934,79.589c2.711,7.242 0.191,15.401 -6.132,19.853c-13.633,9.616 -36.857,25.966 -46.607,32.83c-2.727,1.92 -4.08,5.258 -3.46,8.535c4.777,25.68 4.777,52.021 0.004,77.701c-0.62,3.276 0.732,6.612 3.459,8.531c9.748,6.868 32.972,23.217 46.614,32.821c6.329,4.455 8.851,12.622 6.138,19.87c-10.899,28.843 -26.418,55.723 -45.959,79.574c-4.916,5.969 -13.242,7.866 -20.259,4.616c-15.145,-6.999 -40.915,-18.936 -51.736,-23.948c-3.027,-1.402 -6.594,-0.905 -9.122,1.271c-19.851,16.977 -42.662,30.147 -67.289,38.854c-3.147,1.101 -5.36,3.94 -5.659,7.261c-1.074,11.876 -3.621,40.163 -5.117,56.779c-0.694,7.709 -6.505,13.976 -14.14,15.251c-30.428,4.983 -61.467,4.983 -91.893,-0.015c-7.627,-1.273 -13.433,-7.535 -14.127,-15.237c-1.511,-16.615 -4.059,-44.902 -5.128,-56.778c-0.299,-3.322 -2.513,-6.163 -5.662,-7.264c-24.628,-8.703 -47.44,-21.873 -67.293,-38.847c-2.527,-2.175 -6.092,-2.672 -9.117,-1.27c-10.822,5.008 -36.593,16.946 -51.731,23.958c-7.023,3.253 -15.357,1.354 -20.277,-4.62c-19.529,-23.86 -35.049,-50.741 -45.934,-79.589c-2.711,-7.242 -0.191,-15.401 6.132,-19.853c13.633,-9.616 36.857,-25.966 46.607,-32.83c2.727,-1.92 4.08,-5.258 3.46,-8.535c-4.777,-25.68 -4.777,-52.021 -0.004,-77.701c0.62,-3.276 -0.732,-6.612 -3.459,-8.531c-9.748,-6.868 -32.972,-23.217 -46.614,-32.821c-6.329,-4.455 -8.851,-12.622 -6.138,-19.87c10.899,-28.843 26.418,-55.723 45.959,-79.574c4.916,-5.969 13.242,-7.866 20.259,-4.616c15.145,6.999 40.915,18.936 51.736,23.948c3.027,1.402 6.594,0.905 9.122,-1.271c19.851,-16.977 42.662,-30.147 67.289,-38.854c3.147,-1.101 5.36,-3.94 5.659,-7.261c1.074,-11.876 3.621,-40.163 5.117,-56.779c0.694,-7.709 6.505,-13.976 14.14,-15.251c30.428,-4.983 61.467,-4.983 91.893,0.015Zm-0.818,4.933c-29.884,-4.908 -60.371,-4.908 -90.258,-0.015c-5.387,0.902 -9.487,5.326 -9.977,10.766c-1.496,16.617 -4.044,44.904 -5.117,56.779c-0.475,5.27 -3.984,9.776 -8.975,11.527c-24.045,8.501 -46.318,21.361 -65.7,37.937c-4.014,3.448 -9.673,4.234 -14.475,2.01c-10.82,-5.012 -36.588,-16.948 -51.732,-23.946l-0.004,-0.002c-4.951,-2.293 -10.825,-0.956 -14.295,3.254c-19.193,23.427 -34.436,49.829 -45.142,78.158c-1.913,5.116 -0.131,10.879 4.335,14.023c13.642,9.604 36.866,25.954 46.614,32.821c4.326,3.046 6.474,8.338 5.495,13.536c-4.66,25.074 -4.66,50.793 0.004,75.867c0.979,5.2 -1.169,10.494 -5.497,13.541c-9.75,6.864 -32.972,23.212 -46.604,32.828l-0.004,0.003c-4.461,3.141 -6.24,8.897 -4.329,14.007c10.692,28.335 25.935,54.736 45.116,78.173c3.474,4.214 9.356,5.553 14.312,3.257c15.139,-7.013 40.91,-18.95 51.731,-23.958c4.801,-2.224 10.458,-1.438 14.471,2.009c19.385,16.573 41.658,29.432 65.704,37.93c4.993,1.752 8.503,6.26 8.978,11.531c1.069,11.876 3.617,40.16 5.128,56.774l0,0.004c0.489,5.434 4.585,9.853 9.965,10.753c29.884,4.908 60.371,4.908 90.258,0.015c5.387,-0.902 9.487,-5.326 9.977,-10.766c1.496,-16.617 4.044,-44.904 5.117,-56.779c0.475,-5.27 3.984,-9.776 8.975,-11.527c24.045,-8.501 46.318,-21.361 65.7,-37.937c4.014,-3.448 9.673,-4.234 14.475,-2.01c10.82,5.012 36.588,16.948 51.732,23.946l0.004,0.002c4.951,2.293 10.825,0.956 14.295,-3.254c19.193,-23.427 34.436,-49.829 45.142,-78.158c1.913,-5.116 0.131,-10.879 -4.335,-14.023c-13.642,-9.604 -36.866,-25.954 -46.614,-32.821c-4.326,-3.046 -6.474,-8.338 -5.495,-13.536c4.66,-25.074 4.66,-50.793 -0.004,-75.867c-0.979,-5.2 1.169,-10.494 5.497,-13.541c9.75,-6.864 32.972,-23.212 46.604,-32.828l0.004,-0.003c4.461,-3.141 6.24,-8.897 4.329,-14.007c-10.692,-28.335 -25.935,-54.736 -45.116,-78.173c-3.474,-4.214 -9.356,-5.553 -14.312,-3.257c-15.139,7.013 -40.91,18.95 -51.731,23.958c-4.801,2.224 -10.458,1.438 -14.471,-2.009c-19.385,-16.573 -41.658,-29.432 -65.704,-37.93c-4.993,-1.752 -8.503,-6.26 -8.978,-11.531c-1.069,-11.876 -3.617,-40.16 -5.128,-56.774l-0,-0.004c-0.489,-5.434 -4.585,-9.853 -9.965,-10.753Zm-45.127,156.398c65.339,0 118.386,53.047 118.386,118.386c0,65.339 -53.047,118.386 -118.386,118.386c-65.339,0 -118.386,-53.047 -118.386,-118.386c0,-65.339 53.047,-118.386 118.386,-118.386Zm0,5c-62.579,0 -113.386,50.806 -113.386,113.386c0,62.579 50.806,113.386 113.386,113.386c62.579,0 113.386,-50.806 113.386,-113.386c0,-62.579 -50.806,-113.386 -113.386,-113.386Z"/><path d="M323.417,31.494c7.672,1.233 13.531,7.513 14.228,15.252c1.352,14.833 3.491,38.58 4.451,49.245c0.298,3.314 2.502,6.149 5.64,7.256c21.81,7.774 42.027,19.446 59.667,34.444c2.526,2.163 6.082,2.653 9.099,1.255c9.718,-4.497 31.353,-14.518 44.868,-20.778c7.058,-3.269 15.434,-1.334 20.343,4.7c16.857,20.835 30.34,44.189 39.94,69.211c2.769,7.261 0.259,15.475 -6.095,19.948c-12.17,8.587 -31.666,22.313 -40.422,28.477c-2.721,1.915 -4.074,5.242 -3.464,8.512c4.173,22.775 4.173,46.119 0.004,68.895c-0.61,3.269 0.743,6.594 3.463,8.508c8.753,6.168 28.25,19.894 40.429,28.468c6.36,4.478 8.872,12.699 6.101,19.967c-9.615,25.016 -23.099,48.37 -39.968,69.195c-4.904,6.028 -13.272,7.961 -20.323,4.695c-13.522,-6.245 -35.157,-16.267 -44.873,-20.768c-3.019,-1.398 -6.576,-0.908 -9.104,1.256c-17.637,15.002 -37.854,26.674 -59.663,34.452c-3.136,1.107 -5.338,3.941 -5.637,7.253c-0.965,10.665 -3.104,34.412 -4.439,49.246c-0.698,7.747 -6.562,14.033 -14.241,15.267c-26.472,4.181 -53.439,4.181 -79.908,-0.016c-7.672,-1.233 -13.531,-7.513 -14.228,-15.252c-1.352,-14.833 -3.491,-38.58 -4.451,-49.245c-0.298,-3.314 -2.502,-6.149 -5.64,-7.256c-21.81,-7.774 -42.027,-19.446 -59.667,-34.444c-2.526,-2.163 -6.082,-2.653 -9.099,-1.255c-9.718,4.497 -31.353,14.518 -44.868,20.778c-7.058,3.269 -15.434,1.334 -20.343,-4.7c-16.857,-20.835 -30.34,-44.189 -39.94,-69.211c-2.769,-7.261 -0.259,-15.475 6.095,-19.948c12.17,-8.587 31.666,-22.313 40.422,-28.477c2.721,-1.915 4.074,-5.242 3.464,-8.512c-4.173,-22.775 -4.173,-46.119 -0.004,-68.895c0.61,-3.269 -0.743,-6.594 -3.463,-8.508c-8.753,-6.168 -28.25,-19.894 -40.429,-28.468c-6.36,-4.478 -8.872,-12.699 -6.101,-19.967c9.615,-25.016 23.099,-48.37 39.968,-69.195c4.904,-6.028 13.272,-7.961 20.323,-4.695c13.522,6.245 35.157,16.267 44.873,20.768c3.019,1.398 6.576,0.908 9.104,-1.256c17.637,-15.002 37.854,-26.674 59.663,-34.452c3.136,-1.107 5.338,-3.941 5.637,-7.253c0.965,-10.665 3.104,-34.412 4.439,-49.246c0.698,-7.747 6.562,-14.033 14.241,-15.267c26.472,-4.181 53.439,-4.181 79.908,0.016Zm-39.953,124.411c70.402,0 127.559,57.157 127.559,127.559c0,70.402 -57.157,127.559 -127.559,127.559c-70.402,0 -127.559,-57.157 -127.559,-127.559c0,-70.402 57.157,-127.559 127.559,-127.559Z" style="fill:#52a95b;"/><path d="M323.417,31.494c7.672,1.233 13.531,7.513 14.228,15.252c1.352,14.833 3.491,38.58 4.451,49.245c0.298,3.314 2.502,6.149 5.64,7.256c21.81,7.774 42.027,19.446 59.667,34.444c2.526,2.163 6.082,2.653 9.099,1.255c9.718,-4.497 31.353,-14.518 44.868,-20.778c7.058,-3.269 15.434,-1.334 20.343,4.7c16.857,20.835 30.34,44.189 39.94,69.211c2.769,7.261 0.259,15.475 -6.095,19.948c-12.17,8.587 -31.666,22.313 -40.422,28.477c-2.721,1.915 -4.074,5.242 -3.464,8.512c4.173,22.775 4.173,46.119 0.004,68.895c-0.61,3.269 0.743,6.594 3.463,8.508c8.753,6.168 28.25,19.894 40.429,28.468c6.36,4.478 8.872,12.699 6.101,19.967c-9.615,25.016 -23.099,48.37 -39.968,69.195c-4.904,6.028 -13.272,7.961 -20.323,4.695c-13.522,-6.245 -35.157,-16.267 -44.873,-20.768c-3.019,-1.398 -6.576,-0.908 -9.104,1.256c-17.637,15.002 -37.854,26.674 -59.663,34.452c-3.136,1.107 -5.338,3.941 -5.637,7.253c-0.965,10.665 -3.104,34.412 -4.439,49.246c-0.698,7.747 -6.562,14.033 -14.241,15.267c-26.472,4.181 -53.439,4.181 -79.908,-0.016c-7.672,-1.233 -13.531,-7.513 -14.228,-15.252c-1.352,-14.833 -3.491,-38.58 -4.451,-49.245c-0.298,-3.314 -2.502,-6.149 -5.64,-7.256c-21.81,-7.774 -42.027,-19.446 -59.667,-34.444c-2.526,-2.163 -6.082,-2.653 -9.099,-1.255c-9.718,4.497 -31.353,14.518 -44.868,20.778c-7.058,3.269 -15.434,1.334 -20.343,-4.7c-16.857,-20.835 -30.34,-44.189 -39.94,-69.211c-2.769,-7.261 -0.259,-15.475 6.095,-19.948c12.17,-8.587 31.666,-22.313 40.422,-28.477c2.721,-1.915 4.074,-5.242 3.464,-8.512c-4.173,-22.775 -4.173,-46.119 -0.004,-68.895c0.61,-3.269 -0.743,-6.594 -3.463,-8.508c-8.753,-6.168 -28.25,-19.894 -40.429,-28.468c-6.36,-4.478 -8.872,-12.699 -6.101,-19.967c9.615,-25.016 23.099,-48.37 39.968,-69.195c4.904,-6.028 13.272,-7.961 20.323,-4.695c13.522,6.245 35.157,16.267 44.873,20.768c3.019,1.398 6.576,0.908 9.104,-1.256c17.637,-15.002 37.854,-26.674 59.663,-34.452c3.136,-1.107 5.338,-3.941 5.637,-7.253c0.965,-10.665 3.104,-34.412 4.439,-49.246c0.698,-7.747 6.562,-14.033 14.241,-15.267c26.472,-4.181 53.439,-4.181 79.908,0.016Zm-0.947,5.925c-25.842,-4.097 -52.17,-4.097 -78.024,-0.015c-4.963,0.804 -8.751,4.87 -9.203,9.879c-1.336,14.835 -3.475,38.584 -4.439,49.246c-0.508,5.645 -4.259,10.476 -9.601,12.367c-21.122,7.533 -40.702,18.838 -57.785,33.367c-4.31,3.682 -10.371,4.515 -15.516,2.132c-9.715,-4.5 -31.347,-14.521 -44.867,-20.765l-0.006,-0.003c-4.56,-2.112 -9.971,-0.863 -13.144,3.034c-16.469,20.332 -29.633,43.132 -39.025,67.563c-1.785,4.7 -0.158,10.014 3.954,12.909c12.18,8.574 31.677,22.301 40.429,28.468c4.635,3.263 6.943,8.926 5.91,14.498c-4.037,22.059 -4.037,44.668 0.004,66.726c1.033,5.574 -1.275,11.239 -5.911,14.503c-8.755,6.163 -28.249,19.887 -40.417,28.474l-0.005,0.004c-4.109,2.893 -5.733,8.204 -3.944,12.9c9.373,24.429 22.537,47.229 38.999,67.578c3.178,3.896 8.593,5.144 13.157,3.03c13.515,-6.261 35.152,-16.283 44.868,-20.778c5.143,-2.382 11.202,-1.549 15.511,2.131c17.085,14.526 36.665,25.83 57.789,33.359c5.344,1.892 9.096,6.724 9.605,12.371c0.96,10.664 3.099,34.408 4.45,49.239l0.001,0.007c0.451,5.005 4.238,9.067 9.199,9.866c25.842,4.097 52.17,4.097 78.024,0.015c4.963,-0.804 8.751,-4.87 9.203,-9.879c1.336,-14.835 3.475,-38.584 4.439,-49.246c0.508,-5.645 4.259,-10.476 9.601,-12.367c21.122,-7.533 40.702,-18.838 57.785,-33.367c4.31,-3.682 10.371,-4.515 15.516,-2.132c9.715,4.5 31.347,14.521 44.867,20.765l0.006,0.003c4.56,2.112 9.971,0.863 13.144,-3.034c16.469,-20.332 29.633,-43.132 39.025,-67.563c1.785,-4.7 0.158,-10.014 -3.954,-12.909c-12.18,-8.574 -31.677,-22.301 -40.429,-28.468c-4.635,-3.263 -6.943,-8.926 -5.91,-14.498c4.037,-22.059 4.037,-44.668 -0.004,-66.726c-1.033,-5.574 1.275,-11.239 5.911,-14.503c8.755,-6.163 28.249,-19.887 40.417,-28.474l0.005,-0.004c4.109,-2.893 5.733,-8.204 3.944,-12.9c-9.373,-24.429 -22.537,-47.229 -38.999,-67.578c-3.178,-3.896 -8.593,-5.144 -13.157,-3.03c-13.515,6.261 -35.152,16.283 -44.868,20.778c-5.143,2.382 -11.202,1.549 -15.511,-2.131c-17.085,-14.526 -36.665,-25.83 -57.789,-33.359c-5.344,-1.892 -9.096,-6.724 -9.605,-12.371c-0.96,-10.664 -3.099,-34.408 -4.45,-49.239l-0.001,-0.007c-0.451,-5.005 -4.238,-9.067 -9.199,-9.866Zm-39.005,112.487c73.713,0 133.559,59.846 133.559,133.559c0,73.713 -59.846,133.559 -133.559,133.559c-73.713,0 -133.559,-59.846 -133.559,-133.559c0,-73.713 59.846,-133.559 133.559,-133.559Zm0,6c-70.402,0 -127.559,57.157 -127.559,127.559c0,70.402 57.157,127.559 127.559,127.559c70.402,0 127.559,-57.157 127.559,-127.559c0,-70.402 -57.157,-127.559 -127.559,-127.559Z"/></svg>