<?xml version="1.0" encoding="UTF-8" standalone="no"?><!DOCTYPE svg PUBLIC "-//W3C//DTD SVG 1.1//EN" "http://www.w3.org/Graphics/SVG/1.1/DTD/svg11.dtd"><svg width="100%" height="100%" viewBox="0 0 567 567" version="1.1" xmlns="http://www.w3.org/2000/svg" xmlns:xlink="http://www.w3.org/1999/xlink" xml:space="preserve" xmlns:serif="http://www.serif.com/" style="fill-rule:evenodd;clip-rule:evenodd;stroke-linejoin:round;stroke-miterlimit:2;"><path d="M139.37,188.976c5.638,-0 11.046,2.24 15.033,6.227c3.987,3.987 6.227,9.395 6.227,15.033l-0,342.52c-0,7.828 -6.346,14.173 -14.173,14.173l-66.142,-0c-7.828,0 -14.173,-6.346 -14.173,-14.173l-0,-342.52c0,-5.638 2.24,-11.046 6.227,-15.033c3.987,-3.987 9.395,-6.227 15.033,-6.227l51.969,0Z" style="fill:#82eb82;"/><path d="M139.37,188.976c5.638,-0 11.046,2.24 15.033,6.227c3.987,3.987 6.227,9.395 6.227,15.033l-0,342.52c-0,7.828 -6.346,14.173 -14.173,14.173l-66.142,-0c-7.828,0 -14.173,-6.346 -14.173,-14.173l-0,-342.52c0,-5.638 2.24,-11.046 6.227,-15.033c3.987,-3.987 9.395,-6.227 15.033,-6.227l51.969,0Zm0,5l-51.969,0c-4.312,-0 -8.448,1.713 -11.497,4.762c-3.049,3.049 -4.762,7.185 -4.762,11.497l0,342.52c0,5.066 4.107,9.173 9.173,9.173l66.142,0c5.066,0 9.173,-4.107 9.173,-9.173l0,-342.52c-0,-4.312 -1.713,-8.448 -4.762,-11.497c-3.049,-3.049 -7.185,-4.762 -11.497,-4.762Z"/><path d="M309.449,94.488c5.638,-0 11.046,2.24 15.033,6.227c3.987,3.987 6.227,9.395 6.227,15.033l0,437.008c-0,7.828 -6.346,14.173 -14.173,14.173l-66.142,-0c-7.828,0 -14.173,-6.346 -14.173,-14.173l-0,-437.008c-0,-5.638 2.24,-11.046 6.227,-15.033c3.987,-3.987 9.395,-6.227 15.033,-6.227l51.969,0Z" style="fill:#6ed76e;"/><path d="M309.449,94.488c5.638,-0 11.046,2.24 15.033,6.227c3.987,3.987 6.227,9.395 6.227,15.033l0,437.008c-0,7.828 -6.346,14.173 -14.173,14.173l-66.142,-0c-7.828,0 -14.173,-6.346 -14.173,-14.173l-0,-437.008c-0,-5.638 2.24,-11.046 6.227,-15.033c3.987,-3.987 9.395,-6.227 15.033,-6.227l51.969,0Zm0,5l-51.969,0c-4.312,-0 -8.448,1.713 -11.497,4.762c-3.049,3.049 -4.762,7.185 -4.762,11.497l0,437.008c0,5.066 4.107,9.173 9.173,9.173l66.142,0c5.066,0 9.173,-4.107 9.173,-9.173l0,-437.008c0,-4.312 -1.713,-8.448 -4.762,-11.497c-3.049,-3.049 -7.185,-4.762 -11.497,-4.762Z"/><path d="M479.528,0c11.741,-0 21.26,9.518 21.26,21.26l0,531.496c-0,7.828 -6.346,14.173 -14.173,14.173l-66.142,-0c-7.828,0 -14.173,-6.346 -14.173,-14.173l-0,-531.496c0,-11.741 9.518,-21.26 21.26,-21.26l51.969,0Z" style="fill:#5ac35a;"/><path d="M479.528,0c11.741,-0 21.26,9.518 21.26,21.26l0,531.496c-0,7.828 -6.346,14.173 -14.173,14.173l-66.142,-0c-7.828,0 -14.173,-6.346 -14.173,-14.173l-0,-531.496c0,-11.741 9.518,-21.26 21.26,-21.26l51.969,0Zm0,5l-51.969,-0c-8.98,-0 -16.26,7.28 -16.26,16.26l0,531.496c0,5.066 4.107,9.173 9.173,9.173l66.142,0c5.066,0 9.173,-4.107 9.173,-9.173l-0,-531.496c-0,-8.98 -7.28,-16.26 -16.26,-16.26Z"/></svg>